<svg xmlns="http://www.w3.org/2000/svg" xmlns:xlink="http://www.w3.org/1999/xlink" viewBox="0 0 161.87 182.44"><defs><style>.cls-1{fill:none;}.cls-2{clip-path:url(#clip-path);}.cls-3{fill:#fff;}</style><clipPath id="clip-path" transform="translate(0 -0.31)"><rect class="cls-1" width="161.95" height="182.75"/></clipPath></defs><g id="Layer_2" data-name="Layer 2"><g id="Layer_1-2" data-name="Layer 1"><g class="cls-2"><path class="cls-3" d="M72.22,22.81h0c1.06.65,2.09,1.24,3,1.79.33.18.95.56.95.56,1.22.71,2.28,1.35,3.07,1.93,2.87,2.06,4.41,4.51,3.52,9.6l-.06.54c-.38,2.29-1,3.6-3.86,5.67A140.87,140.87,0,0,1,58.53,54.55a7.89,7.89,0,0,1-8-1.22c-2.36-2.45-2.62-5.75-2.62-8,0-2,.12-3.55.21-4.69Q45.85,42.75,38,47.39L36.93,48c.38,3,.74,5.73,1,8.09C39.29,66.53,40.62,73,42.31,75.54a16.74,16.74,0,0,0,9,6.58c4.51,1.45,15.61.71,20.11-.33a45,45,0,0,0,12.85-4.71,7.27,7.27,0,0,1,2-1c.39,0,.54.35.46,1-.28,2.16,0,3.74.85,4.75A5.44,5.44,0,0,0,92,83.63a8.89,8.89,0,0,0,4.86-1.37q2.49-1.62,2.32-3.93-.49-7.35-3.46-24.7c-.84-4.57-3.67-23.82-5.42-35.76a85,85,0,0,0-8.88,1,22,22,0,0,1-9.81-.25A25.69,25.69,0,0,1,64,15.12c1.2,1.5,2.47,3.06,2.83,3.43a35.58,35.58,0,0,0,5.41,4.26M77.36,74l-6-3.53,2.89-5.21,6,3.53ZM88,51c.23,1.22-.27,1.79-1.37,2.16Q69.43,59,52.29,64.87a33,33,0,0,0-3.06,1.37c.54,1.41,2.7,1.6,1.87,3.41h-1c-.38-.43-.79-.84-1.14-1.29a2.59,2.59,0,0,1,.75-4.08,11,11,0,0,1,2.05-1l35.39-12.1c.26-.09.54-.14.84-.22" transform="translate(0 -0.31)"/><path class="cls-3" d="M32.52,45.48c-2-16-4.65-36.63-5.6-44.13C22.45,3,18.24,5.52,13.74,7.7l7.57,7c-1.92,3.48-3.38,6.71-7.34,7.55a2.67,2.67,0,0,0-1.6,1.54C10.51,28.6,7,30.18,2.15,29.26a9.89,9.89,0,0,0-1.83.06c-.12,3-.23,5.91-.32,8.13,2,.94,3.87,1.3,4.92,2.43q3.26,3.51,6.35,7.18c.47.54,2.59,2.92,4.87,5.63,4.2-1.63,7.73-3.09,10.55-4.38,2-.9,3.91-1.85,5.83-2.83M24.07,32.16c-.11.27-.27.52-.39.77-.15,0-.27,0-.34,0-2.06-1.48-2.61-1.26-3.09,1.31S19,43,18.64,43.75c-1.13-3.09-2.56-6.23-3.57-9a2.82,2.82,0,0,1-3.61-.87c-.7-1.21.16-2.07.72-2.95s2,.1,2.33.39a9.35,9.35,0,0,1,1.81,2.31,36.77,36.77,0,0,1,2.29,5.27c.37-2.11.67-4.07,1.05-6a12.55,12.55,0,0,1,.78-2.53c.37-.85.93-1.59,2-1.1a2.53,2.53,0,0,1,1.58,2.89" transform="translate(0 -0.31)"/><path class="cls-3" d="M60.44,40.47a23.53,23.53,0,0,1-.56,5A36.8,36.8,0,0,1,59,49.14l.19-.08A122.73,122.73,0,0,0,79.08,37.8c1.45-1,2.24-1.62,2.27-1.92a.62.62,0,0,0,0-.13C81,34.4,79.8,33.21,78.2,32.08c-1.94-1.41-4-2.59-6.13-3.81,0,0-1-.58-1.51-.89-.77-.47-2.17-1.56-2.17-1.56-2.23-1.63-6.54-6.13-7.6-8.52,0-.12.34-2.42.57-4-1.71-1.21-3.41-2.45-5.15-3.56.76,4.5,1.6,9.58,2.53,15.28a127.65,127.65,0,0,1,1.7,15.41" transform="translate(0 -0.31)"/><path class="cls-3" d="M33.11,50.16A59.77,59.77,0,0,1,24,54.39l-5.64.94a33.07,33.07,0,0,1,4.16,5.94c1.41,3.52,3.48,5.27,6.78,6.79a17,17,0,0,1,8,7.69A57.41,57.41,0,0,1,35,65.51c-.26-2.17-1-8-1.92-15.35" transform="translate(0 -0.31)"/><path class="cls-3" d="M42.88,39.65q7.29-4.51,7.29-5.69,0-.24-3.21-6.66a63,63,0,0,1-3-6.9,20.5,20.5,0,0,1,.39-2.63c.29-1.55.53-2.33.73-2.33a53,53,0,0,1,2.77,5.45c-.15-.51.84,2.07,2.23,4.66A12.89,12.89,0,0,1,52,31.24a13.49,13.49,0,0,1-3.25,8.83c0,.89.07,2.1.07,3.68,0,2.51.44,4.6,1.72,5.64a5.73,5.73,0,0,0,4.53.9l.62-.11A16.69,16.69,0,0,0,58,49.52c-.17-2.26-.45-5.72-.45-6q-1-10.24-5.14-34.37c-.1-.6-.22-1.24-.33-1.92a61.58,61.58,0,0,0-9.44-4.54C39.13,1.44,34.7,0,30.74.37c.78,6,3.5,26.77,5.6,43.09,2.22-1.22,4.41-2.48,6.54-3.81" transform="translate(0 -0.31)"/><path class="cls-3" d="M137.53,68.73c1.69-.21,2-1,1-2.36-2-2.62-4.87-4-7.29-5.83-.73,2.27-1.42,4.44-2.18,6.79,2.7.76,5.48,1.76,8.48,1.4" transform="translate(0 -0.31)"/><path class="cls-3" d="M73.7,99.9c9.18.09,18.13-1.61,27-3.9a66.07,66.07,0,0,0,18-7.08,18,18,0,0,0,4.7-4.12c-1.85-1.18-13.93-4.19-15-4.55-.71-.23-1-.59-.79-1.5.44-1.67.59-2.44.85-3.66.3-1.43,1.42-2,2.58-2.55,2.41-1.07,4-2.08,6.39-3.12l1.41-.65c-2.13-6.29,0-11.43,3.76-16.16a6.37,6.37,0,0,1-.1-3.64c-.06-.06-4.63-6.78-6.94-10.09a.75.75,0,0,1-.1-.61c1.45-3.3-.93-4.58-3-6.24-3.23-2.53-6.69-5-9.21-8.14-1.85-2.31-3.24-3.58-6.22-2.71A3.12,3.12,0,0,1,95,20.85a2.07,2.07,0,0,1-.65-.45c1.66,10.3,4.71,30.4,5.86,37a115.74,115.74,0,0,1,2,16.49,18.79,18.79,0,0,1-2.86,10.63,10,10,0,0,1-8.8,4.89h0q-5.25,0-5.87-7.65-3.88,2.65-12.33,5c-.82.23-1.62.44-2.41.64-5.22,1.31-17,1.95-22.16-.14a18.1,18.1,0,0,1-6.69-4.21A16.25,16.25,0,0,1,39,80c.38,1.19.71,2.42,1,3.68,1.12,5.14,2.67,10.27,8,12.57q.46.19,1,.36l.34.12a18,18,0,0,1,4.18,1.88c1.41.21,2.82.39,4.24.53,5.3.52,10.64.74,16,.79m30.7-67.2c3.5,3.61,4.39,7.91,3.5,12.66-.41,2.21-1.21,4.35-1.62,6.57a10.34,10.34,0,0,0,.07,3.92c.14.63,1.11,1.08,1.69,1.62a18.19,18.19,0,0,0,1.23-1.69,9.56,9.56,0,0,0,.49-1.73,6.9,6.9,0,0,1-.61,5.71c-1,1.57-3,1.15-3.82-.69-1-2.14-.59-4.33-.13-6.49.5-2.38,1.11-4.74,1.62-7.11.7-3.2-.36-5.94-2.33-8.4-1.54-1.93-1.56-1.91-.09-4.37" transform="translate(0 -0.31)"/><path class="cls-3" d="M157.06,61.9c-3,.2-6.14-.09-9.13.41a16.1,16.1,0,0,1-7.93-.47,10.06,10.06,0,0,1-1.87,10.9c-1.69,1.8-3.81,1.75-5.85,1.31-2.53-.54-5-1.48-7.46-2.22a2.08,2.08,0,0,0-1.29-.1c-3.17,1.4-6.32,2.87-9.74,4.44,1.63.4,3,.7,4.41,1.09,1.61.46,3.23.92,4.79,1.52a4.28,4.28,0,0,1,2.76,4.93c-.63,5-3.83,8.06-7.86,10.47A72.44,72.44,0,0,1,98.08,102l5.43,3.64,2.63-4.1,5.35,3.56c.21-.38.33-.65.28-.71,3.34-3.78,8-6,13.4-7.16,11.53-2.57,21.76-8,32-13.55,1.36-.74,3-2.19,3.26-3.55a86.59,86.59,0,0,0,1.45-13.43c.09-2.83-1.32-5-4.8-4.75" transform="translate(0 -0.31)"/><path class="cls-3" d="M125,65.77a1.76,1.76,0,0,0,.35-.15c3.75-1.64,4.41-4.9,1.53-7.81a3.79,3.79,0,0,0-2-1.15c-1.84-.23-5,2.88-5,4.87,0,.07,0,.23.05.4.3,1.45,3.63,4,5.08,3.84" transform="translate(0 -0.31)"/><path class="cls-3" d="M100.49,110.59l-5.69-3.8,3-4.77c-1,.23-1.91.46-2.87.67a111.46,111.46,0,0,1-36.48,1.83c3.42,7.37,7.42,10.09,11.93,17.42.66-1,4.94,0,5-.4l7.85-7c6.16-.5,12.31-1,18.48-1.49a3,3,0,0,1,1.85.56c2.12,1.55,3.41.71,4-1.46a22,22,0,0,1,.76-2.21l-5.23-3.51Z" transform="translate(0 -0.31)"/><rect class="cls-3" x="139.2" y="135.51" width="2.15" height="13.79"/><rect class="cls-3" x="134.01" y="135.51" width="2.15" height="13.79"/><rect class="cls-3" x="85.81" y="135.51" width="2.15" height="13.79"/><rect class="cls-3" x="80.63" y="135.51" width="2.15" height="13.79"/><rect class="cls-3" x="60.36" y="138.53" width="2.15" height="10.78"/><rect class="cls-3" x="48.62" y="135.51" width="2.15" height="13.79"/><rect class="cls-3" x="119.76" y="147.15" width="16.41" height="2.16"/><rect class="cls-3" x="35.13" y="147.15" width="27.38" height="2.16"/><rect class="cls-3" x="127.92" y="138.72" width="2.15" height="10.59"/><rect class="cls-3" x="41.34" y="138.72" width="2.15" height="10.59"/><rect class="cls-3" x="35.13" y="138.72" width="2.15" height="10.59"/><rect class="cls-3" x="117.6" y="143.52" width="2.15" height="10"/><rect class="cls-3" x="93.94" y="147.15" width="2.15" height="6.37"/><rect class="cls-3" x="93.94" y="147.15" width="7.96" height="2.16"/><rect class="cls-3" x="48.63" y="138.53" width="13.89" height="2.16"/><rect class="cls-3" x="29.66" y="138.53" width="7.63" height="2.16"/><rect class="cls-3" x="76.17" y="147.15" width="6.61" height="2.16"/><path class="cls-3" d="M101.75,138.32a5.65,5.65,0,1,0,5.64,5.65,5.65,5.65,0,0,0-5.64-5.65m0,9.14a3.49,3.49,0,1,1,3.49-3.49,3.49,3.49,0,0,1-3.49,3.49" transform="translate(0 -0.31)"/><path class="cls-3" d="M119.76,144a5.65,5.65,0,1,0-5.65,5.65h5.65Zm-2.16,3.49h-3.49A3.49,3.49,0,1,1,117.6,144Z" transform="translate(0 -0.31)"/><rect class="cls-3" x="74.54" y="143.52" width="2.15" height="10"/><path class="cls-3" d="M76.7,144a5.65,5.65,0,1,0-5.65,5.65H76.7Zm-2.16,3.49H71.05A3.49,3.49,0,1,1,74.54,144Z" transform="translate(0 -0.31)"/><path class="cls-3" d="M43.75,136.25a1.34,1.34,0,1,1-1.34-1.34,1.34,1.34,0,0,1,1.34,1.34" transform="translate(0 -0.31)"/><path class="cls-3" d="M29.42,156.39a1.34,1.34,0,1,1-1.34-1.34,1.33,1.33,0,0,1,1.34,1.34" transform="translate(0 -0.31)"/><path class="cls-3" d="M25.91,156.39a1.34,1.34,0,1,1-1.33-1.34,1.33,1.33,0,0,1,1.33,1.34" transform="translate(0 -0.31)"/><path class="cls-3" d="M127.9,152.29a1.34,1.34,0,1,1-1.33-1.33,1.33,1.33,0,0,1,1.33,1.33" transform="translate(0 -0.31)"/><path class="cls-3" d="M124.4,152.29a1.34,1.34,0,1,1-1.34-1.33,1.34,1.34,0,0,1,1.34,1.33" transform="translate(0 -0.31)"/><path class="cls-3" d="M29.66,148.23a3.5,3.5,0,1,1-7,0v-5.16H20.52v5.16a5.65,5.65,0,1,0,11.29,0v-8.92H29.66v8.92Z" transform="translate(0 -0.31)"/><path class="cls-3" d="M48.78,181.41a1.34,1.34,0,1,1-1.34-1.33,1.34,1.34,0,0,1,1.34,1.33" transform="translate(0 -0.31)"/><path class="cls-3" d="M45.27,181.41a1.34,1.34,0,1,1-1.33-1.33,1.34,1.34,0,0,1,1.33,1.33" transform="translate(0 -0.31)"/><rect class="cls-3" x="139.2" y="160.54" width="2.15" height="13.79"/><rect class="cls-3" x="134.01" y="160.54" width="2.15" height="13.79"/><rect class="cls-3" x="126.57" y="163.74" width="2.15" height="10.59"/><rect class="cls-3" x="119.5" y="163.74" width="2.15" height="10.59"/><rect class="cls-3" x="112.43" y="163.74" width="2.15" height="10.59"/><rect class="cls-3" x="79.8" y="172.18" width="56.37" height="2.15"/><rect class="cls-3" x="59.08" y="164.02" width="8.17" height="2.16"/><rect class="cls-3" x="49.78" y="164.02" width="6.94" height="2.16"/><rect class="cls-3" x="59.08" y="172.18" width="8.17" height="2.15"/><rect class="cls-3" x="65.09" y="164.02" width="2.15" height="10.31"/><rect class="cls-3" x="54.56" y="164.02" width="2.15" height="10.31"/><path class="cls-3" d="M102.36,163.84a5.65,5.65,0,0,0-5.65,5.65v3.3h2.15v-3.3a3.5,3.5,0,0,1,3.5-3.49h2.53v-2.16Z" transform="translate(0 -0.31)"/><path class="cls-3" d="M49.18,173.26a3.49,3.49,0,0,1-7,0v-5.17H40v5.17a5.65,5.65,0,1,0,11.3,0v-8.93H49.18v8.93Z" transform="translate(0 -0.31)"/><rect class="cls-3" x="78.25" y="168.6" width="2.15" height="10"/><path class="cls-3" d="M80.4,169.05a5.65,5.65,0,1,0-5.65,5.64H80.4Zm-2.15,3.49h-3.5a3.5,3.5,0,1,1,3.5-3.49Z" transform="translate(0 -0.31)"/><rect class="cls-3" x="26.93" y="165.17" width="2.15" height="9.17"/><path class="cls-3" d="M29.09,165.14a4.29,4.29,0,1,0-4.29,4.28h4.29Zm-2.16,2.13H24.8a2.13,2.13,0,1,1,2.13-2.13Z" transform="translate(0 -0.31)"/><rect class="cls-3" x="30.85" y="164.83" width="2.15" height="9.51"/><path class="cls-3" d="M37.6,160.85H35.13a4.28,4.28,0,0,0-4.28,4.29H33A2.13,2.13,0,0,1,35.13,163H37.6" transform="translate(0 -0.31)"/></g></g></g></svg>