<?xml version="1.0" encoding="UTF-8"?>
<!DOCTYPE svg PUBLIC "-//W3C//DTD SVG 1.1//EN" "http://www.w3.org/Graphics/SVG/1.1/DTD/svg11.dtd">
<svg xmlns="http://www.w3.org/2000/svg" version="1.1" width="233px" height="285px" style="shape-rendering:geometricPrecision; text-rendering:geometricPrecision; image-rendering:optimizeQuality; fill-rule:evenodd; clip-rule:evenodd" xmlns:xlink="http://www.w3.org/1999/xlink">
<g><path style="opacity:0.977" fill="#000000" d="M 198.5,-0.5 C 199.167,-0.5 199.833,-0.5 200.5,-0.5C 207.311,9.1431 208.311,19.4764 203.5,30.5C 209.509,41.1849 215.009,52.1849 220,63.5C 220.144,86.0516 224.311,107.718 232.5,128.5C 232.5,130.5 232.5,132.5 232.5,134.5C 231.469,135.355 230.303,136.022 229,136.5C 216.834,135.136 204.667,133.803 192.5,132.5C 193.127,123.208 189.794,115.708 182.5,110C 173.69,104.845 164.523,100.345 155,96.5C 150.469,98.1764 147.802,101.51 147,106.5C 145.256,114.135 146.256,121.468 150,128.5C 158.793,139.415 164.293,151.748 166.5,165.5C 167.167,165.833 167.833,166.167 168.5,166.5C 183.628,162.811 198.961,160.978 214.5,161C 220.962,164.088 223.629,169.255 222.5,176.5C 220.613,199.821 216.78,222.821 211,245.5C 207.648,254.853 201.481,261.686 192.5,266C 179.981,272.661 167.315,278.828 154.5,284.5C 153.5,284.5 152.5,284.5 151.5,284.5C 152.912,271.45 154.745,258.45 157,245.5C 157.5,245 158,244.5 158.5,244C 167.217,242.547 175.884,240.881 184.5,239C 189.731,236.768 193.231,232.935 195,227.5C 198.639,213.945 201.805,200.278 204.5,186.5C 204.43,185.228 204.097,184.062 203.5,183C 189.565,185.204 176.898,190.537 165.5,199C 156.833,208 148.167,217 139.5,226C 129.745,232.476 119.078,236.81 107.5,239C 69.3263,246.238 33.3263,240.405 -0.5,221.5C -0.5,218.5 -0.5,215.5 -0.5,212.5C 2.69637,198.741 7.0297,185.241 12.5,172C 17.7269,173.102 22.7269,175.102 27.5,178C 40.537,183.457 54.037,187.29 68,189.5C 77.7304,184.432 84.7304,176.765 89,166.5C 91.7636,154.961 92.2636,143.295 90.5,131.5C 91.6245,114.415 94.7912,97.7488 100,81.5C 104.888,72.2785 112.055,65.4452 121.5,61C 127.392,58.6932 133.392,56.6932 139.5,55C 136.141,51.9918 132.474,49.4918 128.5,47.5C 113.803,48.6868 100.47,53.5201 88.5,62C 79.3966,71.053 69.0633,78.3863 57.5,84C 44.2717,89.6326 30.7717,90.7992 17,87.5C 16.3333,86.1667 16.3333,84.8333 17,83.5C 57.7424,43.6384 106.742,22.3051 164,19.5C 172.834,19.4379 181.5,20.4379 190,22.5C 193.916,15.2552 196.749,7.58849 198.5,-0.5 Z"/></g>
</svg>
