<?xml version="1.0" encoding="utf-8"?>
<!-- Generator: Adobe Illustrator 27.3.1, SVG Export Plug-In . SVG Version: 6.00 Build 0)  -->
<svg version="1.1" id="Layer_1" xmlns="http://www.w3.org/2000/svg" xmlns:xlink="http://www.w3.org/1999/xlink" x="0px" y="0px"
	 viewBox="0 0 711.28 841.89" style="enable-background:new 0 0 711.28 841.89;" xml:space="preserve">
<style type="text/css">
	.st0{fill:#1BBC54;}
</style>
<g>
	<path class="st0" d="M445.64,669.46c-0.65,10.01-0.78,20.21-0.96,30.28c-0.04,1.49,0.93,2.95,1.58,5
		c17.98-14.8,35.05-29.03,52.3-43.2c2.26-1.78,3.34-3.9,3.42-6.58c0.4-9.6,0.57-19.38,0.8-29.04c-0.01-1.61-0.74-3.18-1.21-5.47
		c-1.46,0.97-2.36,1.24-2.98,1.82c-16.51,13.53-32.97,27.19-49.25,40.91C447.51,664.62,445.82,667.32,445.64,669.46z"/>
	<path class="st0" d="M157.06,577.41c-9.74,2.46-19.38,5.45-29.01,8.45c-1.44,0.37-2.56,1.77-4.33,3.03
		c19.74,12.46,38.48,24.35,57.28,36.37c2.34,1.56,4.72,1.93,7.3,1.17c9.26-2.53,18.54-5.36,27.81-8.19
		c1.56-0.43,2.91-1.64,4.86-2.84c-1.22-1.05-1.86-1.79-2.68-2.29c-17.92-11.39-35.9-22.91-54.06-34.18
		C162.3,577.63,159.28,576.82,157.06,577.41z"/>
	<path class="st0" d="M155.48,274.59c-5.42-8.51-11.2-16.86-16.92-25.09c-0.86-1.22-2.51-1.92-4.38-3.11
		c-5.74,22.5-11.16,44.12-16.87,65.73c-0.68,2.67-0.33,5,1.16,7.25c5.31,7.97,10.8,16.01,16.41,24c0.91,1.34,2.44,2.1,4.19,3.64
		c0.64-1.47,1.14-2.29,1.29-3.24c5.44-20.6,10.71-41.27,15.86-61.89C156.76,279.59,156.62,276.42,155.48,274.59z"/>
	<path class="st0" d="M443,179.42c6.43-7.69,12.52-15.8,18.61-23.91c0.93-1.17,0.98-2.95,1.64-5.02
		c-23.26,1.52-45.38,2.95-67.73,4.2c-2.81,0.27-4.99,1.28-6.54,3.33c-6.01,7.64-11.85,15.34-17.69,23.05c-0.99,1.34-1.4,3-2.18,5.13
		c1.55,0.17,2.5,0.31,3.39,0.34c21.28-1.34,42.62-2.55,63.91-4.19C438.68,182.15,441.57,181.11,443,179.42z"/>
	<path class="st0" d="M622.41,423.49c9.38,3.74,18.83,7,28.46,10.33c1.36,0.4,3.1,0.03,5.31,0.04c-8.6-21.74-16.88-42.45-24.98-63.1
		c-1.11-2.72-2.79-4.44-5.22-5.23c-9.09-3.43-18.24-6.69-27.34-9.82c-1.54-0.46-3.27-0.4-5.53-0.52c0.31,1.62,0.46,2.58,0.73,3.48
		c7.83,19.74,15.59,39.67,23.72,59.42C618.39,420.2,620.28,422.71,622.41,423.49z"/>
	<path class="st0" d="M500.86,590.36c-0.47,1.84,0.15,2.87,1.67,3.93c3.39,2.25,6.84,4.62,10.17,7.04
		c8.81,6.65,17.51,13.35,23.85,22.61c0.91,1.34,2.74,2.11,4.33,2.99c2.7,1.39,5.53,2.73,8.47,4.01c3.23,1.59,6.47,3.18,9.72,4.17
		c1.89,0.59,2.95,1.28,3.49,3.09c0.53,2.1,1.19,4.15,2.33,5.98c2.68,4.2,6.16,7.58,12.23,8c-1.82-5.19-3.41-9.89-5.12-14.53
		c-0.16-0.66-0.26-1.2-0.19-1.68c5.27-2.59,10.38-5.84,15.33-9.75c30.17-23.39,48.28-60.45,54.33-97.5
		c1.48-9.8-9.18-0.45-11.63,1.86c-6.76,6.66-13.52,17.14-15.05,26.52c-2.66,17.11-9.07,30.22-20,38.67l-9.49,0.14
		c4.03-4.95,7.52-10.1,9.13-13.93c4.94-11.55,1.97-22.08-3.88-32.16c-4.76-8.38-7.05-13.93-13.4-20.98
		c-3.53-3.8-6.87-7.84-9.6-12.16c-4.16-6.75-4.72-17.8-1.29-26.89c11.78-6.93,24.99-11.73,38.85-14.18
		c1.62-0.31-4.95-16.08-5.51-17.29c-0.83-2.11-6.26-16.36-9.08-15.78c-10.44,1.9-20.68,5.17-30.3,9.48
		c-12.16,5.49-21.8,12.9-30.61,22.12c-6.19,5.37-11.16,12.08-15.04,20.2c-3.18,6.77-3.7,14.21-3.75,21.73
		c-0.28,13.36-5.87,24.77-13.69,35.16c-1.18,1.58-2.89,2.96-4.31,0.53c-2.95-5.1-10.8-22.04-12.91-27.53
		c-2.05-5.37-0.82-10.65,3.42-14.82c2.71-2.72,5.12-5.76,7.83-8.48c1.79-1.86,2.61-3.56,0.77-5.94c-1.21-1.35-1.88-3.1-2.78-4.74
		c-3.06-5.34-6.25-10.63-9.48-16.33c-0.68,0.76-1.28,1.04-1.48,1.57c-5.81,10.63-11.67,21.14-14.88,32.91
		c-1.33,4.73-1.05,9.16,1.03,13.64c5.15,11.43,16.84,33.8,24.36,43.69c3.33,4.34,8.27,4.84,12.72,1.75c1.22-0.86,2.45-2.02,3.5-3.24
		c5.3-5.69,10.67-11.56,15.91-17.37c1.73-1.98,3.11-2.18,5.01,0.03c2.08,2.27,4.4,4.43,7.05,5.7c4.47,2.34,9.13,4.15,13.8,5.66
		c8.28,2.63,14.05,9.07,14.89,16.91c0.34,2.64-0.2,4.65-3.2,5.16c-5.89,1.26-11.91,3.17-17.95,3.76c-7.12,0.8-13.37-1.89-17.66-7.98
		L500.86,590.36z"/>
	<path class="st0" d="M249.43,605.46c-1.97,0.18-2.77,0.99-3.25,2.83c-1.13,3.9-2.33,7.99-3.63,11.83
		c-3.53,10.46-7.24,20.85-14.01,29.72c-0.99,1.34-1.29,3.24-1.52,4.97c-0.51,3.03-0.96,6.18-1.23,9.39
		c-0.46,3.45-0.99,7.07-0.97,10.59c0,1.91-0.33,3.09-1.91,4.12c-1.77,1.26-3.54,2.52-4.89,4.03c-3.16,3.96-5.32,8.2-3.88,14.15
		c4.39-3.21,8.42-6.25,12.33-9.24c0.55-0.4,1.1-0.8,1.52-0.85c4.17,4.24,8.77,8.14,13.97,11.75
		c31.65,21.35,72.41,27.15,109.58,21.39c9.71-1.56-2.48-8.85-5.42-10.42c-8.4-4.49-20.42-7.59-29.89-6.14
		c-17.09,2.77-31.41,0.74-42.93-7l-3.01-9.04c5.9,2.26,11.82,3.93,16.1,4.3c12.49,1.27,21.39-4.91,29.28-13.57
		c6.54-7.15,11.07-11.01,15.79-19.22c2.58-4.58,5.4-8.97,8.74-12.87c5.01-6,15.39-9.93,24.99-9.52
		c10.35,9.02,19.03,20.14,25.65,32.51c0.67,1.45,13.77-9.62,14.81-10.54c1.66-1.5,13.4-11.06,12.1-13.54
		c-4.91-9.34-11.46-18.06-18.45-25.85c-8.84-9.87-18.95-16.79-30.49-22.33c-6.97-4.26-14.95-6.89-23.75-8.1
		c-7.61-0.88-14.71,0.94-21.88,3.23c-12.76,3.86-25.36,2.05-37.77-2.19c-1.77-0.65-3.65-1.84-1.79-3.87
		c4.01-4.36,17.69-17.02,22.22-20.88c4.52-3.57,9.78-3.95,15.26-1.34c3.35,1.83,7.01,3.07,10.36,4.9c2.41,1.09,4.19,1.44,5.94-1.14
		c0.88-1.58,2.41-2.73,3.58-4.01c4.14-4.71,8.33-9.3,12.59-14.07c-0.82-0.5-1.34-0.99-1.94-1.01c-11.87-2.14-23.73-4.58-35.8-3.99
		c-4.9,0.21-9.13,1.88-12.74,5.17c-9.26,8.56-26.86,26.41-34.03,36.64c-3.06,4.5-1.95,9.43,2.37,12.72
		c1.17,0.93,2.64,1.57,4.11,2.21c7.12,3.31,14.24,6.63,21.31,9.82c2.59,1.15,3.1,2.24,1.65,4.82c-1.45,2.58-2.85,5.58-3.24,8.56
		c-0.86,4.81-1.19,9.81-1.09,14.77c0.04,8.65-4.3,16.1-11.44,19.41c-2.42,1.12-4.45,1.18-5.98-1.49
		c-3.01-5.22-6.68-10.28-9.08-15.78c-2.91-6.59-2.23-13.37,2.07-19.33L249.43,605.46z"/>
	<path class="st0" d="M157.39,371.02c-0.72-1.87-1.96-2.33-3.69-2.26c-4.18,0.17-8.24,0.29-12.36,0.29
		c-11.09-0.15-22.12-0.48-32.69-4.25c-1.54-0.46-3.46-0.16-5.08,0.15c-3.18,0.44-6.3,1.01-9.36,1.69
		c-3.48,0.73-7.02,1.34-10.34,2.44c-1.93,0.6-3.06,0.68-4.64-0.5c-1.57-1.48-3.44-2.67-5.27-3.44c-4.72-1.93-9.47-2.67-14.7,0.64
		c4.56,3.18,8.53,6.04,12.63,8.85c0.59,0.32,1.11,0.81,1.28,1.17c-2.72,5.23-5.1,10.89-6.83,16.98
		c-10.51,36.62-3.48,77.17,13.54,110.73c4.46,8.67,7.55-4.97,8.18-8.35c1.71-9.32,0.94-21.75-3.46-30.3
		c-7.84-15.33-10.4-29.73-6.54-42.98l7.63-5.74c-0.31,6.32-0.07,12.53,0.82,16.67c2.74,12.25,11.43,18.96,22.03,23.75
		c8.84,3.84,13.87,7.09,23.3,9.05c5.04,1.04,10.07,2.39,14.91,4.26c7.25,2.96,14.16,11.52,16.74,20.9
		c-5.45,12.67-13.31,24.25-23.04,34.34c-1.11,1.1,13.49,10.07,14.6,10.88c1.94,1.01,14.64,9.39,16.73,7.24
		c7.21-7.6,13.56-16.43,18.78-25.46c6.73-11.5,10.12-23.21,11.87-35.93c1.79-7.88,1.86-16.29,0.27-25.11
		c-1.39-7.44-5.44-13.65-9.74-19.74c-7.73-10.97-9.86-23.5-9.6-36.57c0.12-1.97,0.6-4.1,3.07-2.89c5.48,2.31,21.8,11.51,26.65,14.69
		c4.92,3.01,6.92,7.96,6.03,13.96c-0.59,3.8-0.71,7.68-1.35,11.36c-0.38,2.67-0.08,4.59,2.94,5.4c1.66,0.41,3.3,1.41,4.83,2.17
		c5.71,2.5,11.43,4.99,17.32,7.56c0.15-0.95,0.46-1.54,0.36-2.08c-1.61-12.04-3.05-24.02-7.3-35.42c-1.66-4.52-4.6-8.01-8.88-10.29
		c-10.97-6.23-33.43-17.58-45.38-21.16c-5.14-1.58-9.52,1.03-11.28,6.11c-0.52,1.42-0.75,3.14-0.91,4.69
		c-0.95,7.79-1.89,15.58-2.72,23.31c-0.2,2.74-1.12,3.61-4.03,3.04c-2.96-0.68-6.18-0.96-9.18-0.45c-4.8,0.75-9.67,1.98-14.42,3.45
		c-8.14,2.74-16.62,0.94-21.94-4.83c-1.79-1.96-2.51-3.83-0.48-6.1c4.07-4.53,7.8-9.49,12.22-13.6c5.45-4.73,12.06-6.33,19.03-3.97
		L157.39,371.02z"/>
	<path class="st0" d="M351.83,211.08c1.59-1.33,1.63-2.52,0.96-4.27c-1.38-3.92-2.75-7.84-3.95-11.69
		c-3.39-10.48-6.41-21.14-6.14-32.29c0.11-1.67-0.97-3.37-1.7-4.94c-1.41-2.73-2.88-5.58-4.47-8.37c-1.7-3.03-3.46-6.19-5.52-9.05
		c-1.15-1.53-1.53-2.67-0.88-4.44c0.71-1.95,1.44-4.19,1.56-6.16c0.33-5-0.43-9.8-5.2-13.76c-1.53,5.27-3.04,9.93-4.37,14.67
		c-0.26,0.71-0.45,1.24-0.88,1.58c-5.76-1.01-11.83-1.43-18.17-1.14c-38.11,1.2-74.6,20.46-101.11,47c-7.07,6.95,7.05,5.7,10.35,5.2
		c9.41-1.27,21-5.76,27.82-12.6c12.3-12.17,25.03-18.95,38.89-19.49l7.83,5.48c-6.14,1.67-12.05,3.82-15.63,5.92
		c-10.87,6.36-14.46,16.7-15.7,28.3c-1,9.58-2.55,15.44-1.52,24.96c0.57,5.03,0.95,10.29,0.56,15.47
		c-0.53,7.74-6.65,17.05-14.63,22.36c-13.81-1.25-27.24-5.16-39.94-11.33c-1.35-0.7-5.37,16.01-5.65,17.32
		c-0.48,2.13-4.38,16.88-1.91,18.08c9.47,4.58,19.82,7.87,30.13,10.14c12.99,2.65,25.17,2.3,37.83,0.11
		c8.02-0.78,16.15-3.22,23.85-7.53c6.67-3.68,11.38-9.39,15.97-15.34c7.96-10.74,19.17-16.68,31.69-20.42
		c1.93-0.6,4.08-0.71,3.76,2.08c-0.53,5.83-4.24,24.16-5.72,29.85c-1.42,5.51-5.52,9.03-11.52,10.04c-3.84,0.6-7.45,1.69-11.17,2.23
		c-2.76,0.4-4.39,1.3-4.13,4.41c0.07,1.73-0.4,3.57-0.63,5.29c-0.66,6.19-1.32,12.37-1.87,18.8c0.96-0.15,1.61-0.01,2.1-0.24
		c10.9-5.35,21.85-10.27,31.38-17.92c3.85-3.11,6.23-6.86,7.09-11.66c2.51-12.34,6.29-37.17,6.07-49.71
		c-0.14-5.37-3.92-8.77-9.23-8.81c-1.67-0.11-3.29,0.2-4.79,0.45c-7.68,1.5-15.37,3.01-23.11,4.68c-2.64,0.64-3.76,0.13-4.15-2.93
		c-0.21-2.99-0.95-6.17-2.31-8.78c-2.2-4.42-4.88-8.62-7.8-12.7c-5.11-6.89-5.99-15.45-2.14-22.38c1.32-2.23,2.91-3.55,5.68-2.34
		c5.54,2.43,11.5,4.52,16.72,7.54c6.22,3.59,9.68,9.48,9.7,16.82L351.83,211.08z"/>
	<path class="st0" d="M564.12,346.57c1.64,1,2.84,0.74,4.37-0.41c3.24-2.53,6.48-5.06,9.77-7.47c9.08-6.41,18.15-12.53,28.87-15.73
		c1.56-0.43,2.92-1.94,4.15-3.1c2.33-2.26,4.37-4.52,6.53-6.85c2.41-2.73,4.93-5.22,6.98-8.09c1.06-1.52,2.04-2.27,3.95-2.27
		c2.14,0.18,4.35,0.19,6.45-0.35c4.81-1.35,9.11-3.49,11.31-9.21c-5.37,0.14-10.39,0.11-15.29,0.32c-0.72,0.04-1.37-0.1-1.78-0.35
		c-0.9-5.76-2.28-11.58-4.49-17.62c-12.96-35.89-42.54-64.51-75.93-81.68c-8.82-4.44-3.24,8.56-1.84,11.58
		c4.22,8.48,12.11,18.2,20.58,22.51c15.4,7.86,25.96,17.96,30.65,30.92l-2.84,9.11c-3.48-5.29-7.34-10.12-10.54-12.9
		c-9.3-8.33-20.21-8.72-31.74-6.31c-9.37,1.99-15.35,2.41-24.12,6.33c-4.6,2.13-9.55,4.13-14.48,5.24
		c-7.64,1.92-18.35-0.9-25.87-6.97c-3-13.46-3.48-27.49-1.57-41.46c0.22-1.43-16.82-0.14-18.26-0.06
		c-2.22,0.29-17.33,0.98-17.78,3.83c-1.45,10.52-1.29,21.32-0.29,31.74c1.4,13.17,5.59,24.75,11.58,36.09
		c3.18,7.49,8.11,14.32,14.55,20.3c5.57,5.36,12.41,8.07,19.5,10.36c12.64,4.43,21.74,13.3,29.18,23.96
		c1.2,1.65,1.98,3.64-0.72,4.16c-5.71,1.32-24.39,3.51-30.25,3.88c-5.74,0.31-10.31-2.57-13.07-7.91c-1.69-3.33-3.92-6.56-5.61-9.89
		c-1.18-2.54-2.63-3.78-5.47-2.61c-1.63,0.61-3.48,0.73-5.22,1.1c-6.06,1.19-12.19,2.56-18.44,3.99c0.39,0.85,0.55,1.51,0.9,1.94
		c8.4,8.6,16.54,17.62,26.73,24.36c4.16,2.63,8.43,3.59,13.33,3.08c12.45-1.36,37.28-5.52,49.04-9.64
		c5.06-1.76,7.17-6.41,5.53-11.53c-0.37-1.44-1.22-2.96-1.84-4.29c-3.91-6.86-7.71-13.77-11.69-20.46
		c-1.42-2.43-1.09-3.61,1.58-4.85c2.78-1.29,5.58-2.88,7.67-5.02c3.56-3.41,6.78-7.26,9.59-11.35c5.04-6.89,12.9-10.54,20.61-8.82
		c2.55,0.43,4.37,1.5,4.04,4.6c-0.6,6.01-0.78,12.27-2.03,18.14c-1.46,7-5.97,12.17-13.02,14.41L564.12,346.57z"/>
	<path class="st0" d="M440.56,577.29c0.74-0.93,1.09-2.71,1.31-3.84c0.39-1.06,0.48-2.13,0.52-3.33c0.01-2.21-0.46-4.49-1.54-6.49
		c-1.79-3.87-6.71-4.97-10.66-4.61c-2.87,0.15-5.52,1.09-7.72,2.69c-1.1,0.8-1.96,1.79-2.59,2.97c-3.75,7.77,0.39,12.9,0.39,12.9
		c0.34,0.73,0.74,1.28,1.32,1.89c2.31,2.75,6.02,4.42,9.61,3.93c3.47-0.43,6.53-2.73,8.93-5.46L440.56,577.29z"/>
	<path class="st0" d="M243.19,544.11c1.18,0.33,2.92,0.27,4.05,0.18c1.08-0.21,2.16-0.41,3.31-0.8c2.1-0.53,4.17-1.79,5.71-3.23
		c3.13-3.07,2.57-8.1,1.06-11.66c-0.94-2.65-2.6-4.97-4.94-6.53c-1.05-0.69-2.23-1.32-3.53-1.6c-8.62-1.15-12.24,4.35-12.24,4.35
		c-0.44,0.64-0.93,1.17-1.37,1.81c-1.94,3.1-2.42,7.15-0.78,10.36c1.51,3.27,4.73,5.45,8.03,6.86L243.19,544.11z"/>
	<path class="st0" d="M213.8,346.2c-0.04,1.19,0.69,2.77,1.2,3.85c0.33,1.02,0.9,1.94,1.52,2.97c1.26,1.77,3.13,3.26,4.94,4.32
		c3.93,2.15,8.53,0.01,11.47-2.52c2.08-1.85,3.82-4.12,4.67-6.72c0.28-1.3,0.43-2.55,0.41-3.87c-1.48-8.58-7.99-10.26-7.99-10.26
		c-0.59-0.32-1.35-0.7-2.13-0.78c-3.49-0.88-7.52-0.04-10.16,2.5c-2.58,2.37-3.64,6.1-3.93,9.61L213.8,346.2z"/>
	<path class="st0" d="M392.96,257c-1.15,0.38-2.43,1.42-3.35,2.29c-0.86,0.69-1.66,1.5-2.28,2.38c-1.37,1.81-2.27,3.99-2.57,6.19
		c-0.84,4.21,2.51,7.95,5.97,10.02c2.28,1.44,4.94,2.41,7.69,2.32c1.31-0.02,2.64-0.34,3.9-0.78c7.64-4.13,7.24-10.71,7.24-10.71
		c0.08-0.77,0.17-1.55,0.13-2.26c-0.25-3.71-2.29-7.17-5.46-8.93c-3.11-1.64-7.05-1.58-10.48-0.73L392.96,257z"/>
	<path class="st0" d="M533.12,399.89c-0.63-1.03-2.21-1.92-3.21-2.48c-1-0.57-2-1.13-3-1.4c-2.13-0.78-4.44-1.03-6.66-0.73
		c-4.31,0.53-6.77,5.05-7.66,8.84c-0.68,2.67-0.82,5.53,0.12,8.18c0.56,1.21,1.07,2.3,1.99,3.34c6.2,6.09,12.42,3.65,12.42,3.65
		c0.78-0.22,1.44-0.37,2.23-0.59c3.32-1.39,6.04-4.42,6.74-7.97s-0.68-7.18-2.5-10.16L533.12,399.89z"/>
</g>
</svg>
